<svg xmlns="http://www.w3.org/2000/svg" viewBox="0 0 132.88 150.16"><defs><style>.cls-1{fill:#ee712b;}</style></defs><title>iso_negativo</title><g id="Capa_2" data-name="Capa 2"><g id="Capa_3" data-name="Capa 3"><path class="cls-1" d="M132.81,63.56V46a5.33,5.33,0,0,0-5.31-5.33H24.16A5.32,5.32,0,0,0,18.85,46v17.6a5.32,5.32,0,0,0,5.31,5.33H127.5A5.33,5.33,0,0,0,132.81,63.56Zm-5.25,17.71H53.61a5.33,5.33,0,0,0-5.32,5.32V104.2a5.33,5.33,0,0,0,5.32,5.33h74a5.33,5.33,0,0,0,5.32-5.33V86.59A5.33,5.33,0,0,0,127.56,81.27Zm5.31-58.34V5.32A5.33,5.33,0,0,0,127.55,0H5.32A5.32,5.32,0,0,0,0,5.32V22.93a5.33,5.33,0,0,0,5.32,5.33H127.55A5.33,5.33,0,0,0,132.87,22.93Zm-5.41,99H71.28A5.32,5.32,0,0,0,66,127.22v17.61a5.33,5.33,0,0,0,5.32,5.33h56.18a5.33,5.33,0,0,0,5.31-5.33V127.22A5.33,5.33,0,0,0,127.46,121.9Z"/></g></g></svg>