<svg xmlns="http://www.w3.org/2000/svg" viewBox="0 0 599.2 150.16"><defs><style>.cls-1{fill:#ee712b;}.cls-2{fill:#1eaecc;}.cls-3{fill:#fff;}</style></defs><title>geplas_negativo</title><g id="Capa_2" data-name="Capa 2"><g id="Capa_4" data-name="Capa 4"><path class="cls-1" d="M132.81,63.56V46a5.33,5.33,0,0,0-5.31-5.33H24.16A5.32,5.32,0,0,0,18.85,46v17.6a5.32,5.32,0,0,0,5.31,5.33H127.5A5.33,5.33,0,0,0,132.81,63.56Zm-5.25,17.71H53.61a5.33,5.33,0,0,0-5.32,5.32V104.2a5.33,5.33,0,0,0,5.32,5.33h74a5.33,5.33,0,0,0,5.32-5.33V86.59A5.33,5.33,0,0,0,127.56,81.27Zm5.31-58.34V5.32A5.33,5.33,0,0,0,127.55,0H5.32A5.32,5.32,0,0,0,0,5.32V22.93a5.33,5.33,0,0,0,5.32,5.33H127.55A5.33,5.33,0,0,0,132.87,22.93Zm-5.41,99H71.28A5.32,5.32,0,0,0,66,127.22v17.61a5.33,5.33,0,0,0,5.32,5.33h56.18a5.33,5.33,0,0,0,5.31-5.33V127.22A5.33,5.33,0,0,0,127.46,121.9Z"/><path class="cls-2" d="M213.83,38.35H229.7V68.8a45.07,45.07,0,0,1-14.15,7.08,55.09,55.09,0,0,1-16.19,2.47,44,44,0,0,1-21-5,37,37,0,0,1-14.63-13.83,38.1,38.1,0,0,1-5.31-20,38.12,38.12,0,0,1,5.31-20A36.83,36.83,0,0,1,178.45,5.7a44.79,44.79,0,0,1,21.23-5A46.39,46.39,0,0,1,217.59,4a35.43,35.43,0,0,1,13.51,9.65L220,24a25.85,25.85,0,0,0-19.41-8.47,26.49,26.49,0,0,0-12.76,3A21.66,21.66,0,0,0,179.09,27,25,25,0,0,0,176,39.53,24.76,24.76,0,0,0,179.09,52a22,22,0,0,0,8.63,8.52,25.6,25.6,0,0,0,12.6,3.06,28.07,28.07,0,0,0,13.51-3.22Z"/><path class="cls-2" d="M303.9,63.12V77.06H245.79V2h56.72V15.94H263.05v16.3H297.9V45.75H263.05V63.12Z"/><path class="cls-2" d="M367.54,5.32a25.74,25.74,0,0,1,11.31,9.44,26,26,0,0,1,4,14.48,26,26,0,0,1-4,14.42,25.21,25.21,0,0,1-11.31,9.43,42.15,42.15,0,0,1-17.32,3.27H335.11v20.7H317.73V2h32.49A41.81,41.81,0,0,1,367.54,5.32Zm-6.38,33.51q4.08-3.37,4.08-9.59t-4.08-9.71q-4.08-3.37-11.9-3.38H335.11V42.21h14.15Q357.09,42.21,361.16,38.83Z"/><path class="cls-2" d="M395.15,2h17.37V62.91h37.64V77.06h-55Z"/><path class="cls-2" d="M510,61H475.14l-6.65,16.09h-17.8L484.15,2H501.3l33.57,75.06H516.64Zm-5.47-13.18-11.9-28.74-11.9,28.74Z"/><path class="cls-2" d="M550.14,75.93a40.47,40.47,0,0,1-13.35-6.27l5.9-13.08a40,40,0,0,0,11.48,5.68,43.06,43.06,0,0,0,13.29,2.15q7.39,0,10.94-2.2a6.64,6.64,0,0,0,3.54-5.85,5.61,5.61,0,0,0-2.09-4.45,16.22,16.22,0,0,0-5.37-2.84q-3.27-1.07-8.84-2.36a120.65,120.65,0,0,1-14-4.07,22.89,22.89,0,0,1-9.38-6.54q-3.91-4.5-3.91-12a21,21,0,0,1,3.53-11.85A23.87,23.87,0,0,1,552.5,3.82Q559.64.72,569.93.71a57.8,57.8,0,0,1,14,1.72,41.45,41.45,0,0,1,12,4.93l-5.36,13.19a41.87,41.87,0,0,0-20.8-5.9q-7.29,0-10.78,2.36a7.22,7.22,0,0,0-3.48,6.22q0,3.87,4,5.74a63.42,63.42,0,0,0,12.28,3.7,123.86,123.86,0,0,1,14,4.07,23.3,23.3,0,0,1,9.39,6.44q3.9,4.4,3.91,11.9a20.53,20.53,0,0,1-3.59,11.74,24.21,24.21,0,0,1-10.78,8.42q-7.19,3.11-17.48,3.11A61.38,61.38,0,0,1,550.14,75.93Z"/><path class="cls-3" d="M165.28,123a6.72,6.72,0,0,0,1.65-.18,6.55,6.55,0,0,0,1.33-.47v-2.73h-1.88a.57.57,0,0,1-.42-.15.46.46,0,0,1-.16-.36v-1.58h5v6.07a9,9,0,0,1-1.19.72,7.89,7.89,0,0,1-1.31.5,11.06,11.06,0,0,1-1.5.3,15.33,15.33,0,0,1-1.72.1,7.63,7.63,0,0,1-3-.58,7.12,7.12,0,0,1-2.39-1.58,7.32,7.32,0,0,1-1.57-2.43,8.15,8.15,0,0,1-.56-3.08,8.38,8.38,0,0,1,.55-3.1,6.86,6.86,0,0,1,1.56-2.43,7,7,0,0,1,2.45-1.58,9,9,0,0,1,3.24-.56,8.53,8.53,0,0,1,3.18.55,7.28,7.28,0,0,1,2.27,1.41l-.81,1.27a.71.71,0,0,1-.63.38.93.93,0,0,1-.51-.16l-.68-.4a5.29,5.29,0,0,0-.76-.34,6,6,0,0,0-.95-.24,7.2,7.2,0,0,0-1.21-.09,5.09,5.09,0,0,0-2,.37,4.27,4.27,0,0,0-1.53,1.07,4.7,4.7,0,0,0-1,1.67,6.52,6.52,0,0,0-.34,2.18,6.91,6.91,0,0,0,.36,2.31,4.74,4.74,0,0,0,1,1.7,4.31,4.31,0,0,0,1.55,1.07A5.27,5.27,0,0,0,165.28,123Z"/><path class="cls-3" d="M187.9,110v2.22h-6.65v4.16h5.24v2.15h-5.24v4.24h6.65V125h-9.46V110Z"/><path class="cls-3" d="M203.39,112.74a.72.72,0,0,1-.26.32.69.69,0,0,1-.36.09.85.85,0,0,1-.46-.16l-.62-.36a4.49,4.49,0,0,0-.82-.35,3.44,3.44,0,0,0-1.12-.16,3.12,3.12,0,0,0-1,.14,2.14,2.14,0,0,0-.72.38,1.51,1.51,0,0,0-.44.6,1.91,1.91,0,0,0-.15.76,1.33,1.33,0,0,0,.3.89,2.45,2.45,0,0,0,.78.6,7.33,7.33,0,0,0,1.11.44l1.27.42a11.67,11.67,0,0,1,1.27.52,4.33,4.33,0,0,1,1.11.75,3.24,3.24,0,0,1,.78,1.1,3.82,3.82,0,0,1,.3,1.59,5.17,5.17,0,0,1-.35,1.9,4.38,4.38,0,0,1-1,1.55,5,5,0,0,1-1.64,1,6.06,6.06,0,0,1-2.21.38,7.33,7.33,0,0,1-1.41-.14,8.2,8.2,0,0,1-1.33-.4,6.74,6.74,0,0,1-1.19-.63,6.1,6.1,0,0,1-1-.81l.81-1.33a1.12,1.12,0,0,1,.28-.25.72.72,0,0,1,.36-.1,1,1,0,0,1,.56.22c.2.14.43.3.71.47a5.37,5.37,0,0,0,1,.47,3.79,3.79,0,0,0,1.33.21,2.76,2.76,0,0,0,1.85-.56,2,2,0,0,0,.65-1.63,1.48,1.48,0,0,0-.29-1,2.46,2.46,0,0,0-.78-.63,6.26,6.26,0,0,0-1.11-.43c-.42-.12-.84-.24-1.27-.38a12.38,12.38,0,0,1-1.27-.5,4.21,4.21,0,0,1-1.11-.76,3.58,3.58,0,0,1-.78-1.16,4.44,4.44,0,0,1-.29-1.73,4.23,4.23,0,0,1,.32-1.6,4.09,4.09,0,0,1,1-1.38,4.69,4.69,0,0,1,1.54-1,5.43,5.43,0,0,1,2.08-.37,6.93,6.93,0,0,1,2.45.42,5.56,5.56,0,0,1,1.91,1.16Z"/><path class="cls-3" d="M222.1,110v2.29h-4.52V125h-2.79V112.3h-4.53V110Z"/><path class="cls-3" d="M232.06,125h-2.81V110h2.81Z"/><path class="cls-3" d="M254.85,117.51a8.39,8.39,0,0,1-.54,3,7.42,7.42,0,0,1-1.55,2.44,6.92,6.92,0,0,1-2.4,1.6,8.57,8.57,0,0,1-6.2,0,7,7,0,0,1-4-4,8.19,8.19,0,0,1-.55-3,8.28,8.28,0,0,1,.55-3.06,7.17,7.17,0,0,1,1.55-2.43,7.06,7.06,0,0,1,2.41-1.6,8.57,8.57,0,0,1,6.2,0,7.09,7.09,0,0,1,2.4,1.61,7.33,7.33,0,0,1,1.55,2.42A8.49,8.49,0,0,1,254.85,117.51Zm-2.86,0a7.3,7.3,0,0,0-.32-2.22,4.89,4.89,0,0,0-.94-1.66,4,4,0,0,0-1.49-1,5.63,5.63,0,0,0-4,0,4,4,0,0,0-1.5,1,4.75,4.75,0,0,0-.95,1.66,7,7,0,0,0-.33,2.22,6.89,6.89,0,0,0,.33,2.21,4.57,4.57,0,0,0,.95,1.66,4.11,4.11,0,0,0,1.5,1.05,5.63,5.63,0,0,0,4,0,4.16,4.16,0,0,0,1.49-1.05,4.71,4.71,0,0,0,.94-1.66A7.19,7.19,0,0,0,252,117.51Zm-.72-11.08-3.07,2.24-.22.14-.19.08-.21,0h-2.27l2-2.09a2,2,0,0,1,.24-.21.71.71,0,0,1,.22-.13,1,1,0,0,1,.26-.06l.35,0Z"/><path class="cls-3" d="M263.87,110a.71.71,0,0,1,.22.06.59.59,0,0,1,.19.13,1.29,1.29,0,0,1,.21.24l7.87,10c0-.25,0-.48-.05-.71s0-.45,0-.65V110h2.46v15h-1.44a1.42,1.42,0,0,1-.55-.1,1.24,1.24,0,0,1-.43-.38l-7.84-10c0,.22,0,.44.05.66s0,.42,0,.6V125H262.1V110h1.46Z"/><path class="cls-3" d="M294.75,119.73V125H292V110h4.89a8.7,8.7,0,0,1,2.6.35,5.06,5.06,0,0,1,1.81,1,3.81,3.81,0,0,1,1.06,1.51,5.26,5.26,0,0,1,.34,1.93,5.39,5.39,0,0,1-.36,2,4.13,4.13,0,0,1-1.09,1.56,5.12,5.12,0,0,1-1.81,1,8.17,8.17,0,0,1-2.55.36Zm0-2.18h2.1a4.1,4.1,0,0,0,1.33-.19,2.53,2.53,0,0,0,.95-.55,2.33,2.33,0,0,0,.56-.87,3.47,3.47,0,0,0,.18-1.15,3.16,3.16,0,0,0-.18-1.09,2.26,2.26,0,0,0-.56-.83,2.49,2.49,0,0,0-.95-.52,4.41,4.41,0,0,0-1.33-.18h-2.1Z"/><path class="cls-3" d="M312.76,119.15V125H310V110h4.57a9.6,9.6,0,0,1,2.63.32,5,5,0,0,1,1.8.88,3.5,3.5,0,0,1,1,1.37,4.51,4.51,0,0,1,.33,1.75,4.81,4.81,0,0,1-.22,1.43,4.21,4.21,0,0,1-.65,1.22,4.34,4.34,0,0,1-1,1,5.91,5.91,0,0,1-1.41.66,2.75,2.75,0,0,1,.91.86l3.76,5.54h-2.51a1.21,1.21,0,0,1-.62-.15,1.2,1.2,0,0,1-.43-.41l-3.15-4.8a1.2,1.2,0,0,0-.39-.39,1.45,1.45,0,0,0-.63-.11Zm0-2h1.74a4.3,4.3,0,0,0,1.37-.2,2.54,2.54,0,0,0,1-.55,2.11,2.11,0,0,0,.56-.82,2.76,2.76,0,0,0,.19-1,2.13,2.13,0,0,0-.75-1.75,3.59,3.59,0,0,0-2.3-.61h-1.78Z"/><path class="cls-3" d="M338,110v2.22h-6.65v4.16h5.24v2.15h-5.24v4.24H338V125H328.5V110Z"/><path class="cls-3" d="M344,110h2.25a.92.92,0,0,1,.59.18,1,1,0,0,1,.34.45l3.53,9.15c.12.3.23.63.34,1s.21.73.3,1.13a13.47,13.47,0,0,1,.59-2.11l3.52-9.15a1,1,0,0,1,.33-.43.92.92,0,0,1,.59-.2h2.25l-6.05,15H350Z"/><path class="cls-3" d="M374.65,110v2.22H368v4.16h5.24v2.15H368v4.24h6.65V125h-9.46V110Z"/><path class="cls-3" d="M383.88,110a.77.77,0,0,1,.23.06.72.72,0,0,1,.19.13l.21.24,7.87,10c0-.25-.05-.48-.06-.71s0-.45,0-.65V110h2.46v15h-1.45a1.46,1.46,0,0,1-.55-.1,1.31,1.31,0,0,1-.42-.38l-7.84-10c0,.22,0,.44,0,.66s0,.42,0,.6V125h-2.46V110h1.46Z"/><path class="cls-3" d="M413.15,121.47a.51.51,0,0,1,.39.18l1.1,1.19a6,6,0,0,1-2.25,1.73,7.71,7.71,0,0,1-3.2.61,7.4,7.4,0,0,1-3-.58,6.57,6.57,0,0,1-2.28-1.58,7,7,0,0,1-1.44-2.43,9,9,0,0,1-.51-3.08,8.38,8.38,0,0,1,.56-3.1,7,7,0,0,1,4-4,8.34,8.34,0,0,1,3.13-.57,7.32,7.32,0,0,1,2.92.54,6.81,6.81,0,0,1,2.14,1.41l-.93,1.3a1.1,1.1,0,0,1-.21.22.64.64,0,0,1-.36.09.85.85,0,0,1-.49-.18,5.79,5.79,0,0,0-.63-.41,5.37,5.37,0,0,0-1-.4,4.82,4.82,0,0,0-1.49-.19,4.93,4.93,0,0,0-1.94.37,4.19,4.19,0,0,0-1.53,1,4.78,4.78,0,0,0-1,1.67,6.31,6.31,0,0,0-.36,2.2,6.56,6.56,0,0,0,.36,2.25,4.9,4.9,0,0,0,1,1.66,4.13,4.13,0,0,0,1.45,1,4.39,4.39,0,0,0,1.78.36,7.94,7.94,0,0,0,1-.06,4.23,4.23,0,0,0,.85-.2,3.34,3.34,0,0,0,.74-.35,4.46,4.46,0,0,0,.69-.52,1.07,1.07,0,0,1,.22-.15A.51.51,0,0,1,413.15,121.47Z"/><path class="cls-3" d="M424.93,125h-2.8V110h2.8Z"/><path class="cls-3" d="M447.73,117.51a8.19,8.19,0,0,1-.55,3,7.4,7.4,0,0,1-1.54,2.44,7.11,7.11,0,0,1-2.4,1.6,8.6,8.6,0,0,1-6.21,0,7.06,7.06,0,0,1-2.41-1.6,7.42,7.42,0,0,1-1.55-2.44,8.39,8.39,0,0,1-.55-3,8.49,8.49,0,0,1,.55-3.06,7.48,7.48,0,0,1,1.55-2.43,7.06,7.06,0,0,1,2.41-1.6,8.6,8.6,0,0,1,6.21,0,7,7,0,0,1,3.94,4A8.28,8.28,0,0,1,447.73,117.51Zm-2.86,0a7,7,0,0,0-.33-2.22,4.73,4.73,0,0,0-.94-1.66,4,4,0,0,0-1.49-1,5.6,5.6,0,0,0-3.95,0,4,4,0,0,0-1.5,1,4.75,4.75,0,0,0-1,1.66,7,7,0,0,0-.33,2.22,6.89,6.89,0,0,0,.33,2.21,4.57,4.57,0,0,0,1,1.66,4.11,4.11,0,0,0,1.5,1.05,5.6,5.6,0,0,0,3.95,0,4.07,4.07,0,0,0,1.49-1.05,4.56,4.56,0,0,0,.94-1.66A6.89,6.89,0,0,0,444.87,117.51Zm-.73-11.08-3.07,2.24-.21.14-.2.08-.21,0h-2.26l2-2.09a1.41,1.41,0,0,1,.23-.21.89.89,0,0,1,.23-.13.91.91,0,0,1,.26-.06l.35,0Z"/><path class="cls-3" d="M456.74,110a.77.77,0,0,1,.23.06.72.72,0,0,1,.19.13l.21.24,7.87,10c0-.25-.05-.48-.06-.71s0-.45,0-.65V110h2.46v15h-1.45a1.46,1.46,0,0,1-.55-.1,1.31,1.31,0,0,1-.42-.38l-7.84-10c0,.22,0,.44,0,.66s0,.42,0,.6V125H455V110h1.46Z"/><path class="cls-3" d="M487.53,122.71h6V125h-8.8V110h2.79Z"/><path class="cls-3" d="M513.69,125h-2.16a.92.92,0,0,1-.59-.18,1,1,0,0,1-.34-.45l-1.12-3.06h-6.21l-1.12,3.06a1,1,0,0,1-.33.43.92.92,0,0,1-.6.2h-2.16L505,110h2.85ZM504,119.35h4.79l-1.83-5c-.08-.23-.18-.49-.28-.79s-.19-.62-.29-1c-.1.36-.19.68-.29,1s-.18.57-.27.8Z"/><path class="cls-3" d="M517.05,110h2.25a1,1,0,0,1,.6.18,1.1,1.1,0,0,1,.34.45l3.52,9.15c.12.3.23.63.34,1s.21.73.31,1.13a12.47,12.47,0,0,1,.59-2.11l3.52-9.15a1,1,0,0,1,.33-.43.9.9,0,0,1,.59-.2h2.25l-6.06,15h-2.52Z"/><path class="cls-3" d="M549.73,125h-2.16a1,1,0,0,1-.6-.18,1.06,1.06,0,0,1-.33-.45l-1.12-3.06H539.3l-1.12,3.06a.92.92,0,0,1-.32.43,1,1,0,0,1-.6.2h-2.17L541,110h2.86ZM540,119.35h4.78l-1.82-5c-.09-.23-.18-.49-.28-.79s-.2-.62-.3-1c-.09.36-.19.68-.28,1s-.19.57-.28.8Z"/><path class="cls-3" d="M569.63,117.51a8,8,0,0,1-.55,3,6.8,6.8,0,0,1-3.94,3.92,8.31,8.31,0,0,1-3.1.55h-5.72V110H562a8.31,8.31,0,0,1,3.1.55,7,7,0,0,1,2.4,1.55,6.84,6.84,0,0,1,1.54,2.37A8,8,0,0,1,569.63,117.51Zm-2.85,0a7,7,0,0,0-.33-2.22,4.75,4.75,0,0,0-.94-1.65,4,4,0,0,0-1.49-1,5.21,5.21,0,0,0-2-.36h-2.91v10.56H562a5.21,5.21,0,0,0,2-.36,4.16,4.16,0,0,0,1.49-1.05,4.71,4.71,0,0,0,.94-1.66A6.89,6.89,0,0,0,566.78,117.51Z"/><path class="cls-3" d="M591.25,117.51a8.19,8.19,0,0,1-.55,3,7.4,7.4,0,0,1-1.54,2.44,7.11,7.11,0,0,1-2.4,1.6,8.6,8.6,0,0,1-6.21,0,7.06,7.06,0,0,1-2.41-1.6,7.42,7.42,0,0,1-1.55-2.44,8.39,8.39,0,0,1-.55-3,8.49,8.49,0,0,1,.55-3.06,7.48,7.48,0,0,1,1.55-2.43,7.06,7.06,0,0,1,2.41-1.6,8.6,8.6,0,0,1,6.21,0,7,7,0,0,1,3.94,4A8.28,8.28,0,0,1,591.25,117.51Zm-2.86,0a7,7,0,0,0-.33-2.22,4.73,4.73,0,0,0-.94-1.66,4,4,0,0,0-1.49-1,5.12,5.12,0,0,0-2-.36,5.18,5.18,0,0,0-2,.36,4,4,0,0,0-1.5,1,4.75,4.75,0,0,0-.95,1.66,7,7,0,0,0-.33,2.22,6.89,6.89,0,0,0,.33,2.21,4.57,4.57,0,0,0,.95,1.66,4.11,4.11,0,0,0,1.5,1.05,5.18,5.18,0,0,0,2,.36,5.12,5.12,0,0,0,2-.36,4.07,4.07,0,0,0,1.49-1.05,4.56,4.56,0,0,0,.94-1.66A6.89,6.89,0,0,0,588.39,117.51Z"/><path class="cls-3" d="M171.72,142.41a8.23,8.23,0,0,1-.55,3,7.06,7.06,0,0,1-1.55,2.38,6.79,6.79,0,0,1-2.4,1.54,8.31,8.31,0,0,1-3.1.55H158.4v-15h5.72a8.31,8.31,0,0,1,3.1.55,6.85,6.85,0,0,1,3.95,3.92A8.25,8.25,0,0,1,171.72,142.41Zm-2.86,0a6.91,6.91,0,0,0-.33-2.22,4.8,4.8,0,0,0-.94-1.66,4.13,4.13,0,0,0-1.49-1,5.18,5.18,0,0,0-2-.37h-2.91v10.56h2.91a5.18,5.18,0,0,0,2-.36,4.13,4.13,0,0,0,1.49-1,4.8,4.8,0,0,0,.94-1.66A6.89,6.89,0,0,0,168.86,142.41Z"/><path class="cls-3" d="M188.41,134.91v2.21h-6.65v4.16H187v2.15h-5.23v4.24h6.65v2.23H179v-15Z"/><path class="cls-3" d="M218.09,149.9h-2.15a.93.93,0,0,1-.6-.18,1,1,0,0,1-.34-.45l-1.12-3.06h-6.21l-1.12,3.06a1,1,0,0,1-.33.44.92.92,0,0,1-.6.19h-2.16l5.89-15h2.85Zm-9.71-5.66h4.79l-1.83-5q-.12-.33-.27-.78c-.11-.3-.2-.63-.3-1-.1.35-.19.68-.29,1s-.18.57-.27.8Z"/><path class="cls-3" d="M234.46,146.37a.56.56,0,0,1,.4.17l1.1,1.2a6.08,6.08,0,0,1-2.25,1.73,7.78,7.78,0,0,1-3.2.6,7.57,7.57,0,0,1-3-.57,6.6,6.6,0,0,1-2.28-1.59,6.92,6.92,0,0,1-1.45-2.42,9.25,9.25,0,0,1-.5-3.08,8.38,8.38,0,0,1,.56-3.1,6.91,6.91,0,0,1,1.58-2.42,7.12,7.12,0,0,1,2.43-1.59,8.5,8.5,0,0,1,3.13-.56,7.53,7.53,0,0,1,2.92.53,7,7,0,0,1,2.14,1.42l-.94,1.3a.7.7,0,0,1-.21.21.53.53,0,0,1-.36.1.84.84,0,0,1-.48-.19,6.14,6.14,0,0,0-.64-.4,4.69,4.69,0,0,0-2.45-.6,5.13,5.13,0,0,0-2,.37,4.3,4.3,0,0,0-1.52,1.06,4.75,4.75,0,0,0-1,1.66,6.36,6.36,0,0,0-.36,2.21,6.56,6.56,0,0,0,.36,2.25,5,5,0,0,0,1,1.66,4.19,4.19,0,0,0,1.44,1,4.44,4.44,0,0,0,1.79.36,8,8,0,0,0,1-.07,4.24,4.24,0,0,0,.85-.19,4.17,4.17,0,0,0,.74-.35,4.55,4.55,0,0,0,.68-.52,1,1,0,0,1,.22-.16A.7.7,0,0,1,234.46,146.37Z"/><path class="cls-3" d="M253.67,134.91v2.29h-4.51v12.7h-2.79V137.2h-4.53v-2.29Z"/><path class="cls-3" d="M263.63,149.9h-2.8v-15h2.8Z"/><path class="cls-3" d="M270.57,134.91h2.25a.92.92,0,0,1,.59.17,1,1,0,0,1,.34.46l3.53,9.15c.12.29.23.62.34,1s.21.73.3,1.12a12.57,12.57,0,0,1,.6-2.1l3.51-9.15a1,1,0,0,1,.33-.44.91.91,0,0,1,.59-.19h2.26l-6.06,15h-2.52Z"/><path class="cls-3" d="M305.62,142.41a8.26,8.26,0,0,1-.55,3.05,7.12,7.12,0,0,1-1.55,2.43,6.84,6.84,0,0,1-2.39,1.6,8.6,8.6,0,0,1-6.21,0,6.92,6.92,0,0,1-2.41-1.6,7.28,7.28,0,0,1-1.55-2.43,8.76,8.76,0,0,1,0-6.11,7.28,7.28,0,0,1,1.55-2.43,7.08,7.08,0,0,1,2.41-1.61,8.2,8.2,0,0,1,3.11-.57,8,8,0,0,1,3.1.58,7,7,0,0,1,3.94,4A8.28,8.28,0,0,1,305.62,142.41Zm-2.86,0a6.91,6.91,0,0,0-.33-2.22,4.64,4.64,0,0,0-.94-1.66,4,4,0,0,0-1.49-1.05,5.46,5.46,0,0,0-3.95,0,4,4,0,0,0-1.5,1.05,4.66,4.66,0,0,0-.95,1.66,7.6,7.6,0,0,0,0,4.43,4.66,4.66,0,0,0,.95,1.66,4.09,4.09,0,0,0,1.5,1,5.6,5.6,0,0,0,3.95,0,4,4,0,0,0,1.49-1,4.64,4.64,0,0,0,.94-1.66A6.89,6.89,0,0,0,302.76,142.41Z"/><path class="cls-3" d="M320.9,137.63a.73.73,0,0,1-.26.32.61.61,0,0,1-.36.1,1,1,0,0,1-.47-.16l-.61-.36a5.43,5.43,0,0,0-.83-.36,3.82,3.82,0,0,0-2.12,0,2,2,0,0,0-.73.39,1.53,1.53,0,0,0-.44.6,1.87,1.87,0,0,0-.15.76,1.3,1.3,0,0,0,.3.88,2.39,2.39,0,0,0,.78.6,7.13,7.13,0,0,0,1.11.45l1.27.42a11.83,11.83,0,0,1,1.28.52,4.39,4.39,0,0,1,1.11.74,3.46,3.46,0,0,1,.78,1.11,3.77,3.77,0,0,1,.29,1.59,5.21,5.21,0,0,1-.34,1.9,4.37,4.37,0,0,1-1,1.54,4.8,4.8,0,0,1-1.63,1,6.09,6.09,0,0,1-2.21.38,7.33,7.33,0,0,1-1.41-.14,7.42,7.42,0,0,1-1.34-.4,7.06,7.06,0,0,1-1.19-.62,5.63,5.63,0,0,1-1-.81l.81-1.34a.88.88,0,0,1,.27-.24.65.65,0,0,1,.36-.1,1,1,0,0,1,.56.21l.71.47a5.48,5.48,0,0,0,1,.48,3.75,3.75,0,0,0,1.33.21,2.75,2.75,0,0,0,1.85-.57,2,2,0,0,0,.65-1.62,1.47,1.47,0,0,0-.3-1,2.25,2.25,0,0,0-.78-.63,5.14,5.14,0,0,0-1.11-.43c-.41-.12-.84-.25-1.26-.39a9.79,9.79,0,0,1-1.27-.49,4.29,4.29,0,0,1-1.11-.76,3.25,3.25,0,0,1-.78-1.17,4.4,4.4,0,0,1-.3-1.73,4.17,4.17,0,0,1,1.28-3,4.71,4.71,0,0,1,1.54-1,5.69,5.69,0,0,1,2.09-.36,7.2,7.2,0,0,1,2.45.41,5.54,5.54,0,0,1,1.9,1.17Z"/><path class="cls-3" d="M347.54,134.91v2.21h-6.65v4.16h5.24v2.15h-5.24v4.24h6.65v2.23h-9.46v-15Z"/><path class="cls-3" d="M356.77,134.92a.71.71,0,0,1,.22.06.62.62,0,0,1,.19.14,1.2,1.2,0,0,1,.21.23l7.87,10c0-.24,0-.48-.05-.71s0-.45,0-.65v-9.11h2.46v15h-1.44a1.26,1.26,0,0,1-.55-.1,1.2,1.2,0,0,1-.43-.37l-7.84-10c0,.22,0,.44.05.66s0,.41,0,.59v9.21H355v-15h1.77Z"/><path class="cls-3" d="M392.81,137.63a.74.74,0,0,1-.27.32.61.61,0,0,1-.36.1.94.94,0,0,1-.46-.16l-.62-.36a5.29,5.29,0,0,0-.82-.36,3.86,3.86,0,0,0-2.13,0,2,2,0,0,0-.72.39,1.44,1.44,0,0,0-.44.6,1.87,1.87,0,0,0-.15.76,1.3,1.3,0,0,0,.3.88,2.19,2.19,0,0,0,.78.6,6.41,6.41,0,0,0,1.11.45l1.27.42a11.67,11.67,0,0,1,1.27.52,4.06,4.06,0,0,1,1.11.74,3.18,3.18,0,0,1,.78,1.11,3.76,3.76,0,0,1,.3,1.59,5.21,5.21,0,0,1-.35,1.9,4.34,4.34,0,0,1-1,1.54,4.84,4.84,0,0,1-1.64,1,6.06,6.06,0,0,1-2.21.38,7.27,7.27,0,0,1-2.74-.54,6.7,6.7,0,0,1-1.19-.62,6.1,6.1,0,0,1-1-.81l.81-1.34a.92.92,0,0,1,.28-.24.63.63,0,0,1,.36-.1,1,1,0,0,1,.56.21c.2.14.43.3.71.47a5.36,5.36,0,0,0,1,.48,3.81,3.81,0,0,0,1.34.21,2.7,2.7,0,0,0,1.84-.57,2,2,0,0,0,.65-1.62,1.47,1.47,0,0,0-.29-1,2.46,2.46,0,0,0-.78-.63,5.58,5.58,0,0,0-1.11-.43l-1.27-.39a10.38,10.38,0,0,1-1.27-.49,4.23,4.23,0,0,1-1.1-.76,3.4,3.4,0,0,1-.79-1.17,4.6,4.6,0,0,1-.29-1.73,4.22,4.22,0,0,1,.32-1.59,4.09,4.09,0,0,1,1-1.38,4.71,4.71,0,0,1,1.54-1,5.63,5.63,0,0,1,2.08-.36,7.16,7.16,0,0,1,2.45.41,5.58,5.58,0,0,1,1.91,1.17Z"/><path class="cls-3" d="M407,147.65a3.68,3.68,0,0,0,1.45-.27,3,3,0,0,0,1.08-.75,3.29,3.29,0,0,0,.67-1.19,4.71,4.71,0,0,0,.24-1.55v-9h2.79v9a6.86,6.86,0,0,1-.43,2.47,5.6,5.6,0,0,1-1.24,2,5.67,5.67,0,0,1-2,1.29,7.55,7.55,0,0,1-5.19,0,5.54,5.54,0,0,1-1.95-1.29,5.6,5.6,0,0,1-1.24-2,6.86,6.86,0,0,1-.43-2.47v-9h2.79v9a4.71,4.71,0,0,0,.24,1.55,3.28,3.28,0,0,0,.66,1.19,2.9,2.9,0,0,0,1.08.76A3.66,3.66,0,0,0,407,147.65Z"/><path class="cls-3" d="M431.39,146.37a.56.56,0,0,1,.4.17l1.1,1.2a6.08,6.08,0,0,1-2.25,1.73,7.78,7.78,0,0,1-3.2.6,7.57,7.57,0,0,1-3-.57,6.6,6.6,0,0,1-2.28-1.59,6.92,6.92,0,0,1-1.45-2.42,9.25,9.25,0,0,1-.5-3.08,8.38,8.38,0,0,1,.56-3.1,6.91,6.91,0,0,1,1.58-2.42,7.12,7.12,0,0,1,2.43-1.59,8.5,8.5,0,0,1,3.13-.56,7.53,7.53,0,0,1,2.92.53,7,7,0,0,1,2.14,1.42L432,138a.88.88,0,0,1-.22.21.52.52,0,0,1-.35.1.84.84,0,0,1-.49-.19,7.1,7.1,0,0,0-.63-.4,5.17,5.17,0,0,0-1-.41,5.07,5.07,0,0,0-1.48-.19,5.13,5.13,0,0,0-1.95.37,4.3,4.3,0,0,0-1.52,1.06,4.75,4.75,0,0,0-1,1.66,6.36,6.36,0,0,0-.36,2.21,6.56,6.56,0,0,0,.36,2.25,5,5,0,0,0,1,1.66,4.19,4.19,0,0,0,1.44,1,4.47,4.47,0,0,0,1.79.36,8,8,0,0,0,1-.07,4.24,4.24,0,0,0,.85-.19,4.17,4.17,0,0,0,.74-.35,5.2,5.2,0,0,0,.69-.52.78.78,0,0,1,.21-.16A.7.7,0,0,1,431.39,146.37Z"/><path class="cls-3" d="M446.07,147.65a3.71,3.71,0,0,0,1.45-.27,3.18,3.18,0,0,0,1.08-.75,3.29,3.29,0,0,0,.67-1.19,4.72,4.72,0,0,0,.23-1.55v-9h2.79v9a6.86,6.86,0,0,1-.43,2.47,5.46,5.46,0,0,1-1.24,2,5.67,5.67,0,0,1-2,1.29,7.52,7.52,0,0,1-5.18,0,5.67,5.67,0,0,1-2-1.29,5.58,5.58,0,0,1-1.23-2,6.86,6.86,0,0,1-.43-2.47v-9h2.79v9a4.72,4.72,0,0,0,.23,1.55,3.45,3.45,0,0,0,.67,1.19,2.94,2.94,0,0,0,1.07.76A3.71,3.71,0,0,0,446.07,147.65Z"/><path class="cls-3" d="M463.06,144v5.86h-2.79v-15h4.58a9.56,9.56,0,0,1,2.62.31,5.06,5.06,0,0,1,1.8.89,3.4,3.4,0,0,1,1,1.36,4.7,4.7,0,0,1,.32,1.75,4.46,4.46,0,0,1-.22,1.43,4.24,4.24,0,0,1-.64,1.23,4.57,4.57,0,0,1-1,1,5.09,5.09,0,0,1-1.41.66,2.71,2.71,0,0,1,.92.87L472,149.9h-2.51a1.21,1.21,0,0,1-.62-.14,1.32,1.32,0,0,1-.43-.42l-3.15-4.8a1.08,1.08,0,0,0-.39-.38,1.3,1.3,0,0,0-.63-.12Zm0-2h1.74a4.1,4.1,0,0,0,1.38-.2,2.62,2.62,0,0,0,1-.54,2.21,2.21,0,0,0,.57-.82,3,3,0,0,0,.18-1,2.15,2.15,0,0,0-.75-1.76,3.62,3.62,0,0,0-2.29-.61h-1.79Z"/><path class="cls-3" d="M486.85,137.63a.74.74,0,0,1-.27.32.61.61,0,0,1-.36.1,1,1,0,0,1-.46-.16l-.61-.36a5.43,5.43,0,0,0-.83-.36,3.38,3.38,0,0,0-1.11-.16,3.44,3.44,0,0,0-1,.14,2.08,2.08,0,0,0-.72.39,1.44,1.44,0,0,0-.44.6,1.87,1.87,0,0,0-.15.76,1.3,1.3,0,0,0,.3.88,2.39,2.39,0,0,0,.78.6,7.13,7.13,0,0,0,1.11.45l1.27.42a11.67,11.67,0,0,1,1.27.52,4.06,4.06,0,0,1,1.11.74,3.34,3.34,0,0,1,.79,1.11,3.93,3.93,0,0,1,.29,1.59,5,5,0,0,1-.35,1.9,4.34,4.34,0,0,1-1,1.54,4.75,4.75,0,0,1-1.64,1,6.06,6.06,0,0,1-2.21.38,7.27,7.27,0,0,1-2.74-.54,7.06,7.06,0,0,1-1.19-.62,5.63,5.63,0,0,1-1-.81l.81-1.34a.78.78,0,0,1,.27-.24.65.65,0,0,1,.36-.1,1,1,0,0,1,.56.21l.71.47a5.36,5.36,0,0,0,1,.48,3.81,3.81,0,0,0,1.34.21,2.7,2.7,0,0,0,1.84-.57,2,2,0,0,0,.66-1.62,1.47,1.47,0,0,0-.3-1,2.46,2.46,0,0,0-.78-.63,5.58,5.58,0,0,0-1.11-.43l-1.27-.39a9.66,9.66,0,0,1-1.26-.49,4.12,4.12,0,0,1-1.11-.76,3.4,3.4,0,0,1-.79-1.17,4.6,4.6,0,0,1-.29-1.73,4,4,0,0,1,.33-1.59,3.93,3.93,0,0,1,.95-1.38,4.71,4.71,0,0,1,1.54-1,5.63,5.63,0,0,1,2.08-.36,7.11,7.11,0,0,1,2.45.41,5.49,5.49,0,0,1,1.91,1.17Z"/><path class="cls-3" d="M508.16,149.9H506a.93.93,0,0,1-.6-.18,1,1,0,0,1-.34-.45L504,146.21h-6.21l-1.12,3.06a1,1,0,0,1-.33.44.92.92,0,0,1-.6.19h-2.16l5.89-15h2.85Zm-9.71-5.66h4.79l-1.83-5q-.12-.33-.27-.78c-.1-.3-.2-.63-.3-1-.1.35-.19.68-.29,1s-.18.57-.27.8Z"/><path class="cls-3" d="M517.54,147.6h6v2.3h-8.8v-15h2.79Z"/><path class="cls-3" d="M540,134.91v2.21h-6.65v4.16h5.24v2.15h-5.24v4.24H540v2.23h-9.46v-15Z"/><path class="cls-3" d="M555.47,137.63a.67.67,0,0,1-.26.32.61.61,0,0,1-.36.1.94.94,0,0,1-.46-.16l-.62-.36a5.29,5.29,0,0,0-.82-.36,3.86,3.86,0,0,0-2.13,0,2,2,0,0,0-.72.39,1.44,1.44,0,0,0-.44.6,1.87,1.87,0,0,0-.15.76,1.3,1.3,0,0,0,.3.88,2.19,2.19,0,0,0,.78.6,6.41,6.41,0,0,0,1.11.45l1.27.42a11.67,11.67,0,0,1,1.27.52,4.39,4.39,0,0,1,1.11.74,3.32,3.32,0,0,1,.78,1.11,3.76,3.76,0,0,1,.3,1.59,5.21,5.21,0,0,1-.35,1.9,4.24,4.24,0,0,1-1,1.54,4.7,4.7,0,0,1-1.63,1,6.06,6.06,0,0,1-2.21.38,7.27,7.27,0,0,1-2.74-.54,6.37,6.37,0,0,1-1.19-.62,5.36,5.36,0,0,1-1-.81l.81-1.34a.92.92,0,0,1,.28-.24.63.63,0,0,1,.36-.1,1,1,0,0,1,.56.21c.2.14.43.3.71.47a5.36,5.36,0,0,0,1,.48,3.79,3.79,0,0,0,1.33.21,2.71,2.71,0,0,0,1.85-.57,2,2,0,0,0,.65-1.62,1.47,1.47,0,0,0-.29-1,2.46,2.46,0,0,0-.78-.63,5.58,5.58,0,0,0-1.11-.43l-1.27-.39a10.38,10.38,0,0,1-1.27-.49,4.46,4.46,0,0,1-1.11-.76,3.53,3.53,0,0,1-.78-1.17,4.41,4.41,0,0,1-.29-1.73,4,4,0,0,1,.32-1.59,4.09,4.09,0,0,1,1-1.38,4.71,4.71,0,0,1,1.54-1,5.63,5.63,0,0,1,2.08-.36,7.16,7.16,0,0,1,2.45.41,5.58,5.58,0,0,1,1.91,1.17Z"/></g></g></svg>