<?xml version="1.0" encoding="utf-8"?>
<!-- Generator: Adobe Illustrator 16.0.0, SVG Export Plug-In . SVG Version: 6.00 Build 0)  -->
<!DOCTYPE svg PUBLIC "-//W3C//DTD SVG 1.1//EN" "http://www.w3.org/Graphics/SVG/1.1/DTD/svg11.dtd">
<svg version="1.1" id="Capa_1" xmlns="http://www.w3.org/2000/svg" xmlns:xlink="http://www.w3.org/1999/xlink" x="0px" y="0px"
	 width="102.987px" height="102.987px" viewBox="0 0 102.987 102.987" enable-background="new 0 0 102.987 102.987"
	 xml:space="preserve">
<g>
	<circle fill="none" stroke="#FFB400" stroke-width="3" stroke-miterlimit="10" cx="51.494" cy="51.494" r="49.994"/>
	<g>
		<path fill="#FFB400" d="M34.101,41.247c0.237-5.38,0.475-10.443,6.25-14.874c3.165-2.452,7.279-3.639,11.472-3.639
			c8.861,0,16.773,5.38,16.773,15.507c0,5.222-2.058,7.911-7.438,13.054c-4.984,4.826-7.041,6.646-6.883,14.479h-6.963
			c0-9.02,1.979-11.313,7.517-17.01c5.222-5.38,6.329-6.487,6.329-10.997c0-3.323-1.898-9.02-9.573-9.02
			c-10.127,0-10.522,9.099-10.522,12.5H34.101z M54.829,80.252h-7.675v-8.07h7.675V80.252z"/>
	</g>
</g>
</svg>
